#N canvas 182 47 982 699 10;
#X declare -lib mrPeach;
#X declare -lib mrPeach;
#X obj 110 14 import mrPeach;
#X obj 196 279 udpsend;
#X msg 193 119 /stop 1;
#X obj 311 -56 vsl 15 128 0 1 0 0 empty empty empty 0 -9 0 10 -262144
-1 -1 0 1;
#X msg 295 94 /width1 \$1;
#X obj 587 -31 vsl 15 128 0 1 0 0 empty empty empty 0 -9 0 10 -262144
-1 -1 9200 1;
#X obj 782 -36 vsl 15 128 0.01 1 0 0 empty empty empty 0 -9 0 10 -262144
-1 -1 0 1;
#X msg 772 103 /height1 \$1;
#X obj 225 254 packOSC;
#X obj 556 133 nbx 5 50 -1e+37 1e+37 0 0 empty empty empty 0 -8 0 40
-262144 -1 -1 0.724409 256;
#X obj 784 131 nbx 5 50 -1e+37 1e+37 0 0 empty empty empty 0 -8 0 40
-262144 -1 -1 0 256;
#X obj 290 139 nbx 5 50 0 0.5 0 0 empty empty empty 0 -8 0 40 -262144
-1 -1 0 256;
#X msg 1017 101 /heightLevel1 \$1;
#X msg 1011 19 1;
#X msg 1054 20 2;
#X msg 788 -91 0.69;
#X msg 998 152 1;
#X msg 1041 153 2;
#X msg 1004 234 /soundbank \$1;
#X msg 1073 157 3;
#X obj 44 24 unpackOSC;
#X obj 58 62 print;
#X msg 8 358 disconnect;
#X msg 170 93 /start 1;
#X obj 614 307 vsl 15 128 0 1 0 0 empty empty empty 0 -9 0 10 -262144
-1 -1 0 1;
#X obj 598 534 nbx 5 50 -1e+37 1e+37 0 0 empty empty empty 0 -8 0 40
-262144 -1 -1 0 256;
#X msg 598 505 /activityRight \$1;
#X msg 920 374 1;
#X msg 963 375 2;
#X msg 995 379 3;
#X msg 926 456 /armSideLevelRight \$1;
#X msg 1066 383 5;
#X msg 1032 381 4;
#X obj 26 482 vsl 15 128 0.01 1 0 0 empty empty empty 0 -9 0 10 -262144
-1 -1 0 1;
#X obj 19 665 nbx 5 50 -1e+37 1e+37 0 0 empty empty empty 0 -8 0 25
-262144 -1 -1 0 256;
#X msg 26 438 0.69;
#X obj 241 470 vsl 15 128 0.01 0.28 0 0 empty empty empty 0 -9 0 10
-262144 -1 -1 0 1;
#X obj 234 653 nbx 5 50 -1e+37 1e+37 0 0 empty empty empty 0 -8 0 20
-262144 -1 -1 0 256;
#X msg 241 426 0.69;
#X obj 388 364 vsl 15 128 0 1 0 0 empty empty empty 0 -9 0 10 -262144
-1 -1 0 1;
#X obj 372 591 nbx 5 50 -1e+37 1e+37 0 0 empty empty empty 0 -8 0 40
-262144 -1 -1 0 256;
#X msg 359 538 /activityNormal2 \$1;
#X obj 561 -57 bng 15 250 50 0 empty empty empty 17 7 0 10 -262144
-1 -1;
#X obj 524 -77 bng 15 250 50 0 empty empty empty 17 7 0 10 -262144
-1 -1;
#X obj 165 506 vsl 15 128 0.01 1 0 0 empty empty empty 0 -9 0 10 -262144
-1 -1 0 1;
#X obj 158 688 nbx 5 50 -1e+37 1e+37 0 0 empty empty empty 0 -8 0 25
-262144 -1 -1 0 256;
#X msg 165 461 0.69;
#X obj 609 -83 metro 100;
#X msg 1066 -27 3;
#X msg 1086 24 4;
#X msg 707 -84 stop;
#X msg 851 -81 1;
#X obj 744 178 vsl 15 128 0.01 1 0 0 empty empty empty 0 -9 0 10 -262144
-1 -1 0 1;
#X obj 746 345 nbx 5 50 -1e+37 1e+37 0 0 empty empty empty 0 -8 0 40
-262144 -1 -1 0 256;
#X msg 733 318 /centerX \$1;
#X msg 20 179 connect 127.0.0.1 57120;
#X msg 34 132 connect 127.0.0.1 7002;
#X obj 58 -32 udpreceive 7475;
#X msg 556 105 /activityNormal1 \$1;
#X msg 10 92 connect 127.0.0.1 9000;
#X obj 901 69 nbx 5 50 -1e+37 1e+37 0 0 empty empty empty 0 -8 0 40
-262144 -1 -1 0.496063 256;
#X msg 190 113 /start 1;
#X msg 40 199 connect 127.0.0.1 57120;
#X msg 54 152 connect 127.0.0.1 7002;
#X msg 225 620 /closer/sender1/channe2 \$1;
#X msg 9 234 connect 127.0.0.1 9677;
#X obj 110 14 import mrPeach;
#X obj 196 279 udpsend;
#X msg 193 119 /stop 1;
#X obj 311 -56 vsl 15 128 0 1 0 0 empty empty empty 0 -9 0 10 -262144
-1 -1 0 1;
#X msg 295 94 /width1 \$1;
#X obj 782 -36 vsl 15 128 0.01 1 0 0 empty empty empty 0 -9 0 10 -262144
-1 -1 0 1;
#X msg 772 103 /height1 \$1;
#X obj 225 254 packOSC;
#X obj 556 133 nbx 5 50 -1e+37 1e+37 0 0 empty empty empty 0 -8 0 40
-262144 -1 -1 0 256;
#X obj 784 131 nbx 5 50 -1e+37 1e+37 0 0 empty empty empty 0 -8 0 40
-262144 -1 -1 0 256;
#X obj 290 139 nbx 5 50 0 0.5 0 0 empty empty empty 0 -8 0 40 -262144
-1 -1 0 256;
#X msg 1017 101 /heightLevel1 \$1;
#X msg 1011 19 1;
#X msg 1054 20 2;
#X msg 788 -91 0.69;
#X msg 998 152 1;
#X msg 1041 153 2;
#X msg 1004 234 /soundbank \$1;
#X msg 1073 157 3;
#X obj 44 24 unpackOSC;
#X obj 58 62 print;
#X msg 8 358 disconnect;
#X msg 170 93 /start 1;
#X obj 614 307 vsl 15 128 0 1 0 0 empty empty empty 0 -9 0 10 -262144
-1 -1 0 1;
#X obj 598 534 nbx 5 50 -1e+37 1e+37 0 0 empty empty empty 0 -8 0 40
-262144 -1 -1 0 256;
#X msg 598 505 /activityRight \$1;
#X msg 920 374 1;
#X msg 963 375 2;
#X msg 995 379 3;
#X msg 926 456 /armSideLevelRight \$1;
#X msg 1066 383 5;
#X msg 1032 381 4;
#X obj 26 482 vsl 15 128 0.01 1 0 0 empty empty empty 0 -9 0 10 -262144
-1 -1 0 1;
#X obj 19 665 nbx 5 50 -1e+37 1e+37 0 0 empty empty empty 0 -8 0 25
-262144 -1 -1 0 256;
#X msg 26 438 0.69;
#X obj 241 470 vsl 15 128 0.01 0.28 0 0 empty empty empty 0 -9 0 10
-262144 -1 -1 0 1;
#X obj 234 653 nbx 5 50 -1e+37 1e+37 0 0 empty empty empty 0 -8 0 20
-262144 -1 -1 0 256;
#X msg 241 426 0.69;
#X msg 10 632 /armSideRight \$1;
#X obj 388 364 vsl 15 128 0 1 0 0 empty empty empty 0 -9 0 10 -262144
-1 -1 0 1;
#X obj 372 591 nbx 5 50 -1e+37 1e+37 0 0 empty empty empty 0 -8 0 40
-262144 -1 -1 0 256;
#X msg 359 539 /activityNormal2 \$1;
#X obj 561 -57 bng 15 250 50 0 empty empty empty 17 7 0 10 -262144
-1 -1;
#X obj 524 -77 bng 15 250 50 0 empty empty empty 17 7 0 10 -262144
-1 -1;
#X obj 165 505 vsl 15 128 0.01 1 0 0 empty empty empty 0 -9 0 10 -262144
-1 -1 0 1;
#X obj 158 688 nbx 5 50 -1e+37 1e+37 0 0 empty empty empty 0 -8 0 25
-262144 -1 -1 0 256;
#X msg 165 461 0.69;
#X obj 609 -83 metro 100;
#X msg 1066 -27 3;
#X msg 1086 24 4;
#X msg 707 -84 stop;
#X msg 851 -81 1;
#X obj 744 178 vsl 15 128 0.01 1 0 0 empty empty empty 0 -9 0 10 -262144
-1 -1 0 1;
#X obj 746 345 nbx 5 50 -1e+37 1e+37 0 0 empty empty empty 0 -8 0 40
-262144 -1 -1 0 256;
#X msg 733 318 /centerX \$1;
#X msg 20 179 connect 127.0.0.1 57120;
#X msg 34 132 connect 127.0.0.1 7002;
#X obj 58 -32 udpreceive 7475;
#X msg 556 105 /activityNormal1 \$1;
#X msg 10 92 connect 127.0.0.1 9000;
#X obj 901 69 nbx 5 50 -1e+37 1e+37 0 0 empty empty empty 0 -8 0 40
-262144 -1 -1 0 256;
#X msg 889 41 /centerX1 \$1;
#X msg 190 113 /start 1;
#X msg 40 199 connect 127.0.0.1 57120;
#X msg 54 152 connect 127.0.0.1 7002;
#X msg 225 620 /closer/sender1/channe2 \$1;
#X msg 9 234 connect 127.0.0.1 9677;
#X msg 130 643 /armSideLeft \$1;
#X msg 414 512 /activityNormal1 \$1;
#X obj 902 -125 vsl 15 128 0 1 0 0 empty empty empty 0 -9 0 10 -262144
-1 -1 6300 1;
#X connect 2 0 8 0;
#X connect 3 0 4 0;
#X connect 3 0 11 0;
#X connect 4 0 8 0;
#X connect 5 0 58 0;
#X connect 5 0 9 0;
#X connect 6 0 7 0;
#X connect 6 0 10 0;
#X connect 7 0 8 0;
#X connect 8 0 1 0;
#X connect 12 0 8 0;
#X connect 13 0 12 0;
#X connect 14 0 12 0;
#X connect 15 0 6 0;
#X connect 16 0 18 0;
#X connect 17 0 18 0;
#X connect 18 0 8 0;
#X connect 19 0 18 0;
#X connect 20 0 21 0;
#X connect 22 0 1 0;
#X connect 23 0 8 0;
#X connect 24 0 26 0;
#X connect 24 0 25 0;
#X connect 26 0 8 0;
#X connect 27 0 30 0;
#X connect 28 0 30 0;
#X connect 29 0 30 0;
#X connect 30 0 8 0;
#X connect 31 0 30 0;
#X connect 32 0 30 0;
#X connect 33 0 34 0;
#X connect 35 0 33 0;
#X connect 36 0 64 0;
#X connect 36 0 37 0;
#X connect 38 0 36 0;
#X connect 39 0 41 0;
#X connect 39 0 40 0;
#X connect 39 0 134 0;
#X connect 41 0 8 0;
#X connect 42 0 5 0;
#X connect 43 0 47 0;
#X connect 43 0 23 0;
#X connect 44 0 45 0;
#X connect 44 0 133 0;
#X connect 46 0 44 0;
#X connect 47 0 42 0;
#X connect 47 0 6 0;
#X connect 47 0 3 0;
#X connect 48 0 12 0;
#X connect 49 0 12 0;
#X connect 50 0 47 0;
#X connect 50 0 2 0;
#X connect 51 0 6 0;
#X connect 52 0 54 0;
#X connect 52 0 53 0;
#X connect 54 0 8 0;
#X connect 55 0 1 0;
#X connect 56 0 1 0;
#X connect 57 0 20 0;
#X connect 58 0 8 0;
#X connect 59 0 1 0;
#X connect 64 0 8 0;
#X connect 65 0 1 0;
#X connect 68 0 73 0;
#X connect 69 0 70 0;
#X connect 69 0 76 0;
#X connect 70 0 73 0;
#X connect 71 0 72 0;
#X connect 71 0 75 0;
#X connect 72 0 73 0;
#X connect 73 0 67 0;
#X connect 77 0 73 0;
#X connect 78 0 77 0;
#X connect 79 0 77 0;
#X connect 80 0 71 0;
#X connect 81 0 83 0;
#X connect 82 0 83 0;
#X connect 83 0 73 0;
#X connect 84 0 83 0;
#X connect 85 0 86 0;
#X connect 87 0 67 0;
#X connect 88 0 73 0;
#X connect 89 0 91 0;
#X connect 89 0 90 0;
#X connect 91 0 73 0;
#X connect 92 0 95 0;
#X connect 93 0 95 0;
#X connect 94 0 95 0;
#X connect 95 0 73 0;
#X connect 96 0 95 0;
#X connect 97 0 95 0;
#X connect 98 0 104 0;
#X connect 98 0 99 0;
#X connect 100 0 98 0;
#X connect 101 0 131 0;
#X connect 101 0 102 0;
#X connect 103 0 101 0;
#X connect 104 0 73 0;
#X connect 105 0 107 0;
#X connect 105 0 106 0;
#X connect 107 0 73 0;
#X connect 109 0 113 0;
#X connect 109 0 88 0;
#X connect 110 0 111 0;
#X connect 112 0 110 0;
#X connect 113 0 108 0;
#X connect 113 0 71 0;
#X connect 113 0 69 0;
#X connect 114 0 77 0;
#X connect 115 0 77 0;
#X connect 116 0 113 0;
#X connect 116 0 68 0;
#X connect 117 0 71 0;
#X connect 118 0 120 0;
#X connect 118 0 119 0;
#X connect 120 0 73 0;
#X connect 121 0 67 0;
#X connect 122 0 67 0;
#X connect 123 0 85 0;
#X connect 124 0 73 0;
#X connect 125 0 67 0;
#X connect 127 0 60 0;
#X connect 127 0 8 0;
#X connect 131 0 73 0;
#X connect 132 0 67 0;
#X connect 133 0 8 0;
#X connect 135 0 127 0;
#X connect 135 0 60 0;
